<?xml version="1.0" standalone="no"?>
<!DOCTYPE svg PUBLIC "-//W3C//DTD SVG 20010904//EN"
 "http://www.w3.org/TR/2001/REC-SVG-20010904/DTD/svg10.dtd">
<svg version="1.0" xmlns="http://www.w3.org/2000/svg"
 width="267.000000pt" height="32.000000pt" viewBox="0 0 267.000000 32.000000"
 preserveAspectRatio="xMidYMid meet">

<g transform="translate(0.000000,32.000000) scale(0.100000,-0.100000)"
fill="#000000" stroke="none">
<path d="M775 306 c-31 -14 -48 -30 -58 -57 -8 -24 6 -39 49 -54 47 -16 52
-40 9 -40 -19 0 -29 5 -27 13 1 8 -10 12 -33 12 -30 0 -35 -3 -35 -23 0 -35
19 -47 72 -47 57 0 99 19 117 53 21 39 11 60 -37 76 -42 13 -52 33 -19 39 10
2 17 -3 17 -12 0 -12 10 -16 35 -16 31 0 35 3 35 25 0 42 -65 57 -125 31z"/>
<path d="M2460 294 c-14 -35 -14 -34 20 -34 17 0 30 -2 30 -5 0 -2 -11 -34
-25 -71 -14 -36 -25 -68 -25 -70 0 -2 15 -4 34 -4 32 0 34 2 61 75 26 73 28
75 61 75 28 0 36 5 44 26 6 14 10 27 10 30 0 2 -45 4 -100 4 -99 0 -101 0
-110 -26z"/>
<path d="M160 296 c0 -20 33 -26 162 -26 107 0 118 2 128 20 10 20 8 20 -140
20 -121 0 -150 -3 -150 -14z"/>
<path d="M485 273 c-9 -21 -21 -57 -28 -81 -17 -62 -4 -76 70 -80 86 -4 112
19 163 148 l20 51 -36 -3 c-36 -3 -38 -6 -61 -68 -26 -70 -35 -80 -72 -80 -27
0 -26 14 7 98 l22 52 -35 0 c-31 0 -37 -4 -50 -37z"/>
<path d="M1005 276 c-8 -18 -26 -63 -39 -100 l-25 -66 33 0 c33 0 35 2 70 90
20 50 36 95 36 100 0 6 -14 10 -31 10 -25 0 -32 -6 -44 -34z"/>
<path d="M1092 228 c-16 -46 -33 -91 -37 -101 -7 -16 -3 -18 26 -15 29 3 35 8
54 56 l21 53 18 -56 c16 -52 19 -55 50 -55 35 0 30 -8 103 188 4 8 -5 12 -26
12 -33 0 -34 -1 -66 -85 -6 -17 -10 -11 -24 30 -16 46 -20 50 -53 53 l-35 3
-31 -83z"/>
<path d="M1346 294 c-10 -27 -7 -33 23 -36 l30 -3 -29 -73 -28 -73 36 3 c35 3
37 5 63 73 25 66 28 70 60 73 34 4 49 16 49 40 0 9 -26 12 -99 12 -81 0 -100
-3 -105 -16z"/>
<path d="M1563 273 c-8 -21 -26 -66 -39 -100 l-24 -63 95 0 c52 0 95 4 95 9 0
5 3 16 6 25 5 13 -3 16 -51 16 -48 0 -56 3 -51 16 3 9 6 18 6 20 0 2 24 4 54
4 50 0 66 9 66 36 0 2 -23 4 -51 4 -73 0 -60 24 14 28 44 2 59 7 67 22 10 19
7 20 -80 20 l-91 0 -16 -37z"/>
<path d="M1785 301 c-3 -6 -12 -27 -19 -48 -8 -21 -23 -62 -35 -91 l-21 -53
37 3 c31 3 38 8 48 37 6 19 17 37 23 39 12 4 16 -3 26 -50 6 -25 11 -28 45
-28 l39 0 -8 34 c-4 18 -10 38 -14 44 -3 5 5 17 19 26 31 21 48 52 40 76 -6
18 -16 20 -90 20 -46 0 -86 -4 -90 -9z m105 -46 c0 -8 -11 -17 -25 -21 -31 -8
-38 -3 -29 20 8 20 54 22 54 1z"/>
<path d="M1986 220 c-20 -50 -36 -95 -36 -100 0 -6 13 -10 29 -10 25 0 31 7
51 53 l22 52 17 -50 c17 -47 20 -50 52 -50 30 0 35 4 50 45 9 25 26 69 38 98
l21 52 -34 0 c-31 0 -35 -4 -53 -52 l-20 -52 -17 52 c-17 49 -20 52 -51 52
-32 0 -34 -2 -69 -90z"/>
<path d="M2230 223 c-18 -49 -35 -94 -38 -100 -3 -10 18 -13 87 -13 86 0 92 1
100 23 8 21 6 22 -46 25 -45 3 -54 6 -51 20 2 13 16 18 60 20 46 2 57 6 61 22
5 18 0 20 -44 20 -37 0 -49 4 -49 15 0 12 13 15 59 15 55 0 71 8 71 36 0 2
-40 4 -89 4 l-88 0 -33 -87z"/>
<path d="M147 253 c-4 -3 -7 -12 -7 -20 0 -10 31 -13 144 -13 135 0 144 1 149
20 5 19 0 20 -137 20 -79 0 -146 -3 -149 -7z"/>
<path d="M122 183 c3 -16 18 -18 143 -18 125 0 140 2 143 18 3 16 -9 17 -143
17 -134 0 -146 -1 -143 -17z"/>
<path d="M193 143 c-69 -3 -93 -7 -93 -17 0 -20 269 -33 281 -14 19 30 10 38
-43 36 -29 -1 -95 -4 -145 -5z"/>
<path d="M1434 65 c-14 -58 -37 -55 487 -55 472 0 481 0 486 20 3 11 10 20 15
20 5 0 6 -9 3 -20 -5 -17 -2 -20 25 -20 22 0 33 6 40 22 l9 23 0 -22 c1 -26
16 -30 25 -7 10 27 7 44 -9 44 -8 0 -15 5 -15 10 0 6 -7 10 -15 10 -8 0 -15
-6 -15 -12 0 -10 -2 -10 -9 0 -7 12 -12 12 -31 0 -18 -10 -24 -10 -27 -1 -4
10 -110 13 -484 13 l-479 0 -6 -25z m1036 -19 c0 -3 -4 -8 -10 -11 -5 -3 -10
-1 -10 4 0 6 5 11 10 11 6 0 10 -2 10 -4z"/>
</g>
</svg>
